<svg xmlns="http://www.w3.org/2000/svg" version="1.1" xmlns:xlink="http://www.w3.org/1999/xlink" xmlns:svgjs="http://svgjs.com/svgjs" width="520" height="650" preserveAspectRatio="none" viewBox="0 0 520 650"><g mask="url(&quot;#SvgjsMask1010&quot;)" fill="none"><path d="M303.15 520.29a15.58 15.58 0 1 0 27.72 14.22z" stroke="#037b0b"></path><path d="M315.5 25.37L354.51 25.37L354.51 37.38L315.5 37.38z" stroke="#d3b714"></path><path d="M255.63 83.47L302.6 83.47L302.6 118.16L255.63 118.16z" fill="#037b0b"></path><path d="M382 511.26a51.3 51.3 0 1 0-101.75-13.15z" fill="#037b0b"></path><path d="M382.56 356.9a22.15 22.15 0 1 0 12.99-42.35z" stroke="#037b0b"></path><path d="M204.92 93.04 a15.83 15.83 0 1 0 31.66 0 a15.83 15.83 0 1 0 -31.66 0z" stroke="#037b0b"></path><path d="M293.19 108.57 a48.1 48.1 0 1 0 96.2 0 a48.1 48.1 0 1 0 -96.2 0z" stroke="#037b0b"></path><path d="M463.83 114.79L479.42 114.79L479.42 137.17L463.83 137.17z" fill="#037b0b"></path><path d="M50.37 477.82L77.23 477.82L77.23 504.68L50.37 504.68z" stroke="#037b0b"></path><path d="M484.09 270.93a36.77 36.77 0 1 0 68.82 25.91z" stroke="#e73635"></path><path d="M478.52 334.9 a40.85 40.85 0 1 0 81.7 0 a40.85 40.85 0 1 0 -81.7 0z" fill="#037b0b"></path><path d="M449.04 621.35 a26.51 26.51 0 1 0 53.02 0 a26.51 26.51 0 1 0 -53.02 0z" fill="#d3b714"></path><path d="M48.62 20.67L60.8 20.67L60.8 27.47L48.62 27.47z" fill="#e73635"></path><path d="M260.16 29.84a30.65 30.65 0 1 0-25.06-55.95z" fill="#037b0b"></path><path d="M438.9 85.2 a41.66 41.66 0 1 0 83.32 0 a41.66 41.66 0 1 0 -83.32 0z" stroke="#e73635"></path><path d="M311.72 155.85L333.16 155.85L333.16 171.34L311.72 171.34z" fill="#e73635"></path></g><defs><mask id="SvgjsMask1010"><rect width="520" height="650" fill="#ffffff"></rect></mask></defs></svg>